<svg width="123" height="43" viewBox="0 0 123 43" fill="none" xmlns="http://www.w3.org/2000/svg">
<rect x="0.809211" y="0.809211" width="51.7895" height="40.4605" rx="7.2829" fill="#D75231" stroke="#D75231" stroke-width="1.61842"/>
<path d="M12.051 26.7214L11.7305 20.2542L20.4991 10.8447H26.8498L18.1103 20.3125L14.9059 23.6626L12.051 26.7214ZM6.89468 31.2368V10.8447H12.6045V31.2368H6.89468ZM20.5865 31.2368L13.9445 22.8178L17.7025 18.7976L27.2868 31.2368H20.5865ZM25.386 31.2368L34.3876 10.8447H40.0683L49.0991 31.2368H43.098L36.0481 13.6705H38.3204L31.2705 31.2368H25.386ZM30.3092 27.2749L31.7949 23.0217H41.7579L43.2436 27.2749H30.3092Z" fill="#EFEBE0"/>
<path d="M59.212 31.2368V10.8447H64.9801V26.6632H74.71V31.2368H59.212ZM86.9631 31.6447C85.3317 31.6447 83.8266 31.3825 82.4477 30.8581C81.0688 30.3337 79.8647 29.5957 78.8353 28.6441C77.8254 27.6731 77.0389 26.5466 76.4757 25.2648C75.9125 23.9831 75.6309 22.575 75.6309 21.0408C75.6309 19.5065 75.9125 18.0985 76.4757 16.8167C77.0389 15.5349 77.8254 14.4182 78.8353 13.4666C79.8647 12.4955 81.0688 11.7478 82.4477 11.2234C83.8266 10.6991 85.3317 10.4369 86.9631 10.4369C88.6138 10.4369 90.119 10.6991 91.4784 11.2234C92.8573 11.7478 94.0517 12.4955 95.0616 13.4666C96.0715 14.4182 96.8581 15.5349 97.4213 16.8167C98.0039 18.0985 98.2952 19.5065 98.2952 21.0408C98.2952 22.575 98.0039 23.9928 97.4213 25.294C96.8581 26.5758 96.0715 27.6925 95.0616 28.6441C94.0517 29.5957 92.8573 30.3337 91.4784 30.8581C90.119 31.3825 88.6138 31.6447 86.9631 31.6447ZM86.9631 26.8671C87.7399 26.8671 88.4585 26.7311 89.1188 26.4592C89.7985 26.1873 90.3812 25.7989 90.8667 25.294C91.3716 24.7696 91.7601 24.1481 92.0319 23.4296C92.3233 22.711 92.4689 21.9147 92.4689 21.0408C92.4689 20.1474 92.3233 19.3511 92.0319 18.652C91.7601 17.9334 91.3716 17.3216 90.8667 16.8167C90.3812 16.2923 89.7985 15.8942 89.1188 15.6223C88.4585 15.3504 87.7399 15.2144 86.9631 15.2144C86.1862 15.2144 85.4579 15.3504 84.7782 15.6223C84.1179 15.8942 83.5352 16.2923 83.0303 16.8167C82.5448 17.3216 82.1563 17.9334 81.865 18.652C81.5931 19.3511 81.4572 20.1474 81.4572 21.0408C81.4572 21.9147 81.5931 22.711 81.865 23.4296C82.1563 24.1481 82.5448 24.7696 83.0303 25.294C83.5352 25.7989 84.1179 26.1873 84.7782 26.4592C85.4579 26.7311 86.1862 26.8671 86.9631 26.8671ZM101.316 31.2368V10.8447H106.065L117.31 24.42H115.066V10.8447H120.718V31.2368H115.969L104.725 17.6615H106.968V31.2368H101.316Z" fill="#EEB216"/>
</svg>
